<svg width="56" height="56" viewBox="0 0 56 56" fill="none" xmlns="http://www.w3.org/2000/svg">
<path fill-rule="evenodd" clip-rule="evenodd" d="M28.0001 9.33341C17.6908 9.33341 9.33342 17.6908 9.33341 28.0001C9.33341 38.3094 17.6908 46.6667 28.0001 46.6667C38.3094 46.6667 46.6667 38.3094 46.6667 28.0001C46.6667 17.6908 38.3094 9.33342 28.0001 9.33341ZM4.66675 28.0001C4.66675 15.1134 15.1134 4.66675 28.0001 4.66675C40.8867 4.66675 51.3334 15.1134 51.3334 28.0001C51.3334 40.8867 40.8867 51.3334 28.0001 51.3334C15.1134 51.3334 4.66675 40.8867 4.66675 28.0001ZM19.3502 24.0168C20.2614 23.1056 21.7388 23.1056 22.65 24.0168L28.0001 29.3669L33.3502 24.0168C34.2614 23.1056 35.7388 23.1056 36.65 24.0168C37.5612 24.9281 37.5612 26.4054 36.65 27.3167L29.65 34.3167C29.2124 34.7542 28.6189 35.0001 28.0001 35.0001C27.3812 35.0001 26.7877 34.7542 26.3502 34.3167L19.3502 27.3167C18.4389 26.4054 18.4389 24.9281 19.3502 24.0168Z" fill="#4845A0"/>
</svg>
